<?xml version="1.0" encoding="utf-8"?>
<!-- Generator: Adobe Illustrator 16.0.1, SVG Export Plug-In . SVG Version: 6.00 Build 0)  -->
<!DOCTYPE svg PUBLIC "-//W3C//DTD SVG 1.1//EN" "http://www.w3.org/Graphics/SVG/1.1/DTD/svg11.dtd">
<svg version="1.1" id="Layer_1" xmlns="http://www.w3.org/2000/svg" xmlns:xlink="http://www.w3.org/1999/xlink" x="0px" y="0px"
	 width="90px" height="90px" viewBox="0 0 90 90" enable-background="new 0 0 90 90" xml:space="preserve">
<path fill="#672CDF" d="M45.001,3c3.466,0,6.29,2.798,6.332,6.254l-0.004,0.065v0.112v2.122l2.001,0.707
	C63.301,15.783,70,25.256,69.999,35.834l-0.002,0.069c-0.619,15.595,3.113,25.998,11.41,31.803c1.535,1.074,3.801,1.735,5.593,2.119
	v0.508H44.998H3v-0.536c1.755-0.39,3.979-1.038,5.51-2.035c10.808-7.037,11.843-22.946,11.494-31.827
	c-0.001-0.037-0.002-0.072-0.004-0.104c0-10.576,6.7-20.049,16.671-23.572l2.033-0.718l-0.033-2.155l-0.004-0.133
	C38.711,5.797,41.536,3,45.001,3 M45.001,0c-5.155,0-9.334,4.179-9.334,9.333c0,0.033,0.004,0.064,0.005,0.097
	C24.796,13.273,17,23.64,17,35.832c0,0.062,0.004,0.127,0.005,0.19c0.469,11.798-1.88,23.854-10.132,29.227
	C4.704,66.66,0,67.292,0,67.292v0.041v5.834v0.166c0,0,36.456,0,44.998,0c0.001,0,0.003,0,0.005,0c8.542,0,44.998,0,44.998,0v-0.166
	v-5.834v-0.041c0,0-4.752-0.56-6.873-2.044c-8.752-6.123-10.601-17.43-10.132-29.228C72.996,35.958,73,35.894,73,35.832
	c0-12.191-7.796-22.558-18.671-26.4c0-0.033,0.005-0.065,0.005-0.098C54.334,4.179,50.155,0,45.001,0L45.001,0z"/>
<path fill="#672CDF" d="M57.483,79c-2.185,4.791-6.984,8-12.482,8c-5.498,0-10.299-3.209-12.485-8H57.483 M61.505,76h-33.01
	c1.315,7.939,8.193,14,16.506,14C53.312,90,60.19,83.939,61.505,76L61.505,76z"/>
</svg>
