<?xml version="1.0" encoding="utf-8"?>
<!-- Generator: Adobe Illustrator 16.0.1, SVG Export Plug-In . SVG Version: 6.00 Build 0)  -->
<!DOCTYPE svg PUBLIC "-//W3C//DTD SVG 1.1//EN" "http://www.w3.org/Graphics/SVG/1.1/DTD/svg11.dtd">
<svg version="1.1" id="Layer_1" xmlns="http://www.w3.org/2000/svg" xmlns:xlink="http://www.w3.org/1999/xlink" x="0px" y="0px"
	 width="70px" height="70px" viewBox="0 0 70 70" enable-background="new 0 0 70 70" xml:space="preserve">
<g>
	<path fill="#672CDF" d="M35,0C15.67,0,0,15.67,0,35s15.67,35,35,35s35-15.67,35-35S54.33,0,35,0z M35,67.02
		C17.317,67.02,2.981,52.684,2.981,35C2.981,17.317,17.317,2.981,35,2.981c17.684,0,32.02,14.335,32.02,32.019
		C67.02,52.684,52.684,67.02,35,67.02z"/>
	<polygon fill="#672CDF" points="48.254,46.958 35.648,39.464 35.648,12.002 32.646,12.002 32.646,41.253 32.783,41.253 
		46.721,49.538 	"/>
</g>
</svg>
