<svg version="1.1" id="Layer_1" xmlns="http://www.w3.org/2000/svg" xmlns:xlink="http://www.w3.org/1999/xlink" x="0px" y="0px"
	 width="27px" height="27px" viewBox="0 0 27 27" enable-background="new 0 0 27 27" xml:space="preserve">
<path fill="#39B54A" d="M13.5,2.002C7.149,2.002,2.002,7.148,2.002,13.5c0,6.35,5.147,11.497,11.498,11.497
	c6.35,0,11.497-5.147,11.497-11.497C24.998,7.148,19.85,2.002,13.5,2.002z M17.462,20.661c-0.794,0.758-1.86,1.189-3.202,1.298
	v2.172h-1.153v-2.161c-1.38-0.083-2.525-0.523-3.437-1.32c-0.91-0.797-1.35-2-1.32-3.607l0.035-0.068h1.28
	c0,1.358,0.385,2.336,1.155,2.935c0.769,0.599,1.699,0.896,2.789,0.896c1.127,0,2.021-0.296,2.682-0.89
	c0.66-0.59,0.99-1.343,0.99-2.252c0-0.841-0.275-1.529-0.824-2.065c-0.548-0.535-1.518-1.051-2.903-1.549
	c-1.586-0.502-2.76-1.108-3.521-1.817c-0.763-0.71-1.144-1.709-1.144-2.997c0-1.235,0.381-2.242,1.144-3.019
	c0.762-0.778,1.798-1.22,3.11-1.326v-2.31h1.166v2.31c1.334,0.122,2.366,0.621,3.099,1.498c0.731,0.877,1.089,2.063,1.075,3.556
	L18.449,10h-1.281c0-1.158-0.306-2.1-0.915-2.824c-0.609-0.724-1.464-1.086-2.561-1.086c-1.129,0-1.983,0.295-2.567,0.886
	C10.542,7.567,10.25,8.312,10.25,9.21c0,0.869,0.259,1.568,0.777,2.098c0.519,0.53,1.513,1.039,2.984,1.526
	c1.578,0.525,2.746,1.137,3.504,1.835c0.758,0.697,1.137,1.683,1.137,2.955C18.651,18.891,18.254,19.901,17.462,20.661z"/>
</svg>
