<?xml version="1.0" encoding="utf-8"?>
<!-- Generator: Adobe Illustrator 16.0.1, SVG Export Plug-In . SVG Version: 6.00 Build 0)  -->
<!DOCTYPE svg PUBLIC "-//W3C//DTD SVG 1.1//EN" "http://www.w3.org/Graphics/SVG/1.1/DTD/svg11.dtd">
<svg version="1.1" id="Layer_1" xmlns="http://www.w3.org/2000/svg" xmlns:xlink="http://www.w3.org/1999/xlink" x="0px" y="0px"
	 width="70px" height="70px" viewBox="0 0 70 70" enable-background="new 0 0 70 70" xml:space="preserve">
<path fill="#672CDF" d="M34.875,14.125c8.747,0,16.977,6.837,22.339,12.573c3.988,4.265,7.034,8.589,8.694,11.12
	c-1.657,2.149-4.562,5.646-8.361,9.145C52.141,51.938,43.818,57.87,34.875,57.87C20.69,57.87,8.101,43.32,3.83,37.792
	C9.166,29.549,21.841,14.125,34.875,14.125 M34.875,10.82C15.614,10.82,0,37.938,0,37.938s15.614,23.238,34.875,23.238
	c19.262,0,34.875-23.238,34.875-23.238S54.137,10.82,34.875,10.82L34.875,10.82z"/>
<path fill="#672CDF" d="M34.681,52.375c-9.029,0-16.374-7.346-16.374-16.375c0-9.029,7.345-16.375,16.374-16.375
	c9.03,0,16.375,7.346,16.375,16.375C51.057,45.029,43.711,52.375,34.681,52.375z M34.681,23.081
	c-7.123,0-12.918,5.795-12.918,12.919s5.795,12.919,12.918,12.919C41.805,48.919,47.6,43.124,47.6,36
	C47.602,28.876,41.805,23.081,34.681,23.081z"/>
<circle fill="#672CDF" cx="38.25" cy="32.312" r="4.188"/>
</svg>
