<svg width="512" height="512" xmlns="http://www.w3.org/2000/svg">
  <g>
    <path d="m223.220001,71.226997c16.065994,-15.298 38.917999,-20.465 60.475006,-21.109001c22.798981,-0.204998 45.588989,-0.080997 68.388,-0.071999c0.089996,24.051003 0.097992,48.111 -0.009003,72.161003c-14.734009,-0.026001 -29.477997,0.036003 -44.212006,-0.026001c-9.342987,-0.582001 -18.937012,6.5 -20.63501,15.762009c-0.223999,16.092987 -0.080994,32.194992 -0.071991,48.289001c21.609985,0.088989 43.220001,-0.027008 64.82901,0.053986c-1.582001,23.281006 -4.470001,46.456009 -7.858002,69.541c-19.088013,0.179016 -38.187012,-0.01799 -57.274017,0.099014c-0.169983,68.664993 0.08902,137.330002 -0.134003,205.99498c-28.35199,0.115997 -56.720978,-0.053986 -85.071976,0.080017c-0.537003,-68.674011 0.043991,-137.382996 -0.295013,-206.06601c-13.832001,-0.143997 -27.671997,0.098999 -41.502991,-0.115997c0.052994,-23.084991 0.018005,-46.168991 0.026001,-69.246002c13.821991,-0.168991 27.653992,0.036011 41.477005,-0.097992c0.419998,-22.442001 -0.421005,-44.910004 0.437988,-67.333008c1.386002,-17.757996 8.153992,-35.649002 21.431,-47.915001z" id="f"/>
  </g>
</svg>