<svg width="512" height="512" xmlns="http://www.w3.org/2000/svg">
  <g>
    <path id="g+" d="m462,141.347h-54.621002v54.621994h-27.311005v-54.621994h-54.621979v-27.310997h54.621979v-54.620003h27.311005v54.621002h54.621002v27.309998l0,0zm-154.416992,225.91301c0,40.942993 -37.384003,90.786987 -131.434006,90.786987c-68.784004,0 -126.149002,-29.667999 -126.149002,-79.569c0,-38.514008 24.383003,-88.510986 138.322998,-88.510986c-16.921997,-13.792023 -21.074997,-33.076996 -10.733002,-53.959015c-66.713997,0 -100.878998,-39.222 -100.878998,-89.022995c0,-48.731003 36.242004,-93.032001 110.149994,-93.032001c18.660004,0 118.39801,0 118.39801,0l-26.457001,27.77h-31.078995c21.925003,12.562004 33.585983,38.432999 33.585983,66.948997c0,26.175003 -14.412994,47.375 -34.982986,63.279007c-36.503006,28.222 -27.158005,43.979996 11.08699,71.871994c37.708008,28.251007 50.170013,50.05899 50.170013,83.437012zm-73.845001,-216.807007c-5.506012,-41.905006 -32.806,-76.284004 -64.70401,-77.243004c-31.908997,-0.948997 -53.308998,31.119003 -47.797997,73.034996c5.509003,41.904999 35.834007,71.178009 67.749001,72.139008c31.897003,0.94899 50.257004,-26.020996 44.753006,-67.931zm32.893005,221.01001c0,-34.466003 -31.44101,-67.317017 -84.192017,-67.317017c-47.541992,-0.52301 -87.831993,30.041992 -87.831993,65.471008c0,36.153992 34.334999,66.25 81.87899,66.25c60.781006,-0.001007 90.14502,-28.25 90.14502,-64.403992z"/>
  </g>
</svg>