<svg width="512" height="512" xmlns="http://www.w3.org/2000/svg">
  <g>
    <path d="m29.674999,177.274994l92.784,-1.156998v303.831009l-92.784,1.178009v-303.851013l0,-0.001007l0,0z" id="dot"/>
    <path d="m200.141006,177.274994l88.658005,-1.125992v38.645996l0.020996,10.947006c26.255005,-25.744003 53.320007,-45.199997 96.562988,-45.199997c51.015991,0 100.362,21.380997 100.362,91.033981v208.434998l-90,1.341003v-159.231995c0,-35.102997 -8.79599,-57.733002 -50.718994,-57.733002c-36.934998,0 -52.39801,6.615021 -52.39801,55.21402v160.398987l-92.477997,1.115997v-303.841003l-0.008987,0z" id="n"/>
    <path d="m127.835999,81.448997c0,28.051003 -22.739998,50.790001 -50.790001,50.790001s-50.790997,-22.738998 -50.790997,-50.791c0,-28.050999 22.738998,-50.790997 50.790997,-50.790997c28.051003,0 50.791,22.739002 50.791,50.790997l-0.000999,0.000999z" id="i"/>
  </g>
</svg>