<svg version="1.1" id="Layer_1" xmlns="http://www.w3.org/2000/svg" xmlns:xlink="http://www.w3.org/1999/xlink" x="0px" y="0px"
	 width="27px" height="27px" viewBox="0 0 27 27" enable-background="new 0 0 27 27" xml:space="preserve">
<path fill="#672CDF" d="M18.857,11.732V7.38c0-2.954-2.403-5.357-5.357-5.357S8.144,4.426,8.144,7.38v4.339
	c-2.484,0.383-4.578,0.842-4.578,0.842v12.418h19.869V12.561C23.435,12.561,21.343,12.112,18.857,11.732z M14.37,18.385l0.307,3.085
	h-2.354l0.307-3.085c-0.596-0.314-1.006-0.932-1.006-1.652c0-1.037,0.84-1.877,1.876-1.877c1.037,0,1.876,0.84,1.876,1.877
	C15.376,17.453,14.966,18.07,14.37,18.385z M17.022,11.438c-1.237-0.192-2.535-0.342-3.578-0.342c-1.02,0-2.271,0.144-3.467,0.329
	V7.772l0,0c0-2.154,1.58-3.907,3.522-3.907s3.522,1.753,3.522,3.907V11.438z"/>
</svg>
