<?xml version="1.0" encoding="utf-8"?>
<!-- Generator: Adobe Illustrator 16.0.1, SVG Export Plug-In . SVG Version: 6.00 Build 0)  -->
<!DOCTYPE svg PUBLIC "-//W3C//DTD SVG 1.1//EN" "http://www.w3.org/Graphics/SVG/1.1/DTD/svg11.dtd">
<svg version="1.1" id="Layer_1" xmlns="http://www.w3.org/2000/svg" xmlns:xlink="http://www.w3.org/1999/xlink" x="0px" y="0px"
	 width="70px" height="70px" viewBox="0 0 70 70" enable-background="new 0 0 70 70" xml:space="preserve">
<path fill="#672CDF" d="M51.336,29.608V16.336C51.336,7.328,44.008,0,35,0S18.664,7.328,18.664,16.336v13.231
	c-7.572,1.167-13.956,2.568-13.956,2.568V70h60.584V32.135C65.292,32.135,58.913,30.766,51.336,29.608z M21.935,16.315
	C21.935,9.111,27.795,3.25,35,3.25c7.204,0,13.065,5.861,13.065,13.065v12.259c-4.59-0.644-9.404-1.145-13.271-1.145
	c-3.784,0-8.425,0.48-12.86,1.104V16.315z M61.935,66.898H8.064V34.649c4.973-1.012,18.177-3.524,26.725-3.524
	c8.566,0,22.088,2.525,27.145,3.534V66.898z"/>
<path fill="#672CDF" d="M38.688,44.438c0-2.037-1.651-3.688-3.688-3.688c-2.037,0-3.688,1.651-3.688,3.688
	c0,1.416,0.807,2.631,1.977,3.248l-0.603,6.064h4.627l-0.604-6.064C37.881,47.068,38.688,45.853,38.688,44.438z"/>
</svg>
