<?xml version="1.0" encoding="utf-8"?>
<!-- Generator: Adobe Illustrator 16.0.1, SVG Export Plug-In . SVG Version: 6.00 Build 0)  -->
<!DOCTYPE svg PUBLIC "-//W3C//DTD SVG 1.1//EN" "http://www.w3.org/Graphics/SVG/1.1/DTD/svg11.dtd">
<svg version="1.1" id="Layer_1" xmlns="http://www.w3.org/2000/svg" xmlns:xlink="http://www.w3.org/1999/xlink" x="0px" y="0px"
	 width="70px" height="70px" viewBox="0 0 70 70" enable-background="new 0 0 70 70" xml:space="preserve">
<g>
	<path fill="#672CDF" d="M43.523,44.71c0-1.897-0.619-3.449-1.857-4.657c-1.236-1.208-3.42-2.371-6.548-3.492
		c-3.576-1.135-6.223-2.501-7.942-4.101c-1.719-1.599-2.578-3.851-2.578-6.755c0-2.785,0.859-5.054,2.578-6.807
		c1.719-1.753,4.057-2.75,7.014-2.991v-5.208h2.628v5.208c3.009,0.275,5.338,1.401,6.988,3.378c1.649,1.977,2.457,4.65,2.424,8.019
		l-0.078,0.128h-2.889c0-2.612-0.688-4.735-2.062-6.368c-1.375-1.633-3.3-2.45-5.775-2.45c-2.545,0-4.474,0.666-5.789,1.998
		c-1.315,1.333-1.973,3.013-1.973,5.041c0,1.96,0.584,3.537,1.753,4.731c1.168,1.195,3.412,2.342,6.73,3.442
		c3.558,1.186,6.191,2.564,7.901,4.138s2.565,3.795,2.565,6.665c0,2.854-0.895,5.137-2.682,6.846
		c-1.789,1.711-4.195,2.686-7.22,2.926V59.3H34.11v-4.873c-3.112-0.188-5.695-1.182-7.748-2.978
		c-2.055-1.797-3.047-4.51-2.979-8.137l0.077-0.153h2.889c0,3.062,0.867,5.266,2.604,6.614c1.736,1.35,3.833,2.022,6.291,2.022
		c2.543,0,4.559-0.669,6.046-2.005C42.779,48.457,43.523,46.762,43.523,44.71z"/>
</g>
<path fill="#672CDF" d="M35,0C15.67,0,0,15.67,0,35c0,19.329,15.67,35,35,35c19.329,0,35-15.671,35-35C70,15.67,54.329,0,35,0z
	 M35,66.75C17.465,66.75,3.25,52.534,3.25,35C3.25,17.465,17.465,3.25,35,3.25c17.534,0,31.75,14.215,31.75,31.75
	C66.75,52.534,52.534,66.75,35,66.75z"/>
</svg>
