<?xml version="1.0" encoding="utf-8"?>
<!-- Generator: Adobe Illustrator 16.0.1, SVG Export Plug-In . SVG Version: 6.00 Build 0)  -->
<!DOCTYPE svg PUBLIC "-//W3C//DTD SVG 1.1//EN" "http://www.w3.org/Graphics/SVG/1.1/DTD/svg11.dtd">
<svg version="1.1" id="Layer_1" xmlns="http://www.w3.org/2000/svg" xmlns:xlink="http://www.w3.org/1999/xlink" x="0px" y="0px"
	 width="90px" height="90px" viewBox="0 0 90 90" enable-background="new 0 0 90 90" xml:space="preserve">
<path fill="none" stroke="#672CDF" stroke-width="3" stroke-miterlimit="10" d="M45,2.5C21.54,2.5,2.5,21.54,2.5,45
	S21.54,87.5,45,87.5S87.5,68.46,87.5,45S68.46,2.5,45,2.5z M45,10.915c14.11,0,26.18,8.5,31.365,20.74L63.189,36.33
	c-1.274,0.424-10.115-2.72-18.784-2.72c-8.415,0-16.745,3.144-17.936,2.72l-12.92-4.59C18.734,19.5,30.89,10.915,45,10.915z
	 M10.915,45c0-1.785,0.17-3.485,0.425-5.101l12.24,4.335c0.085,0,0.255,0.086,0.341,0.086c1.273,0.425,15.555,12.324,16.32,14.024
	c0.339,0.851,0.509,1.785,0.509,2.551v17.85C23.921,76.705,10.915,62.34,10.915,45z M48.995,78.829v-17.85
	c0-0.85,0.171-1.7,0.51-2.55c0.766-1.785,15.045-13.601,16.32-14.109c0.085,0,0.171-0.086,0.255-0.086l12.58-4.505
	c0.255,1.7,0.425,3.485,0.425,5.27C79.085,62.51,65.91,76.875,48.995,78.829z"/>
<circle fill="none" stroke="#672CDF" stroke-width="3" stroke-miterlimit="10" cx="45" cy="45" r="5.833"/>
</svg>
