<svg version="1.1" xmlns="http://www.w3.org/2000/svg" xmlns:xlink="http://www.w3.org/1999/xlink" x="0px" y="0px"
	 width="28.708px" height="14.042px" viewBox="0 0 28.708 14.042" enable-background="new 0 0 28.708 14.042" xml:space="preserve">
<g id="Guides">
</g>
<g id="_x31_2_Col_Grid" display="none" opacity="0.1" enable-background="new    ">
	<g display="inline">
		<g>
			<rect x="920" fill="#FF0000" width="60" height="1020"/>
		</g>
		<g>
			<rect x="840" fill="#FF0000" width="60" height="1020"/>
		</g>
		<g>
			<rect x="760" fill="#FF0000" width="60" height="1020"/>
		</g>
		<g>
			<rect x="680" fill="#FF0000" width="60" height="1020"/>
		</g>
		<g>
			<rect x="600" fill="#FF0000" width="60" height="1020"/>
		</g>
		<g>
			<rect x="520" fill="#FF0000" width="60" height="1020"/>
		</g>
		<g>
			<rect x="440" fill="#FF0000" width="60" height="1020"/>
		</g>
		<g>
			<rect x="360" fill="#FF0000" width="60" height="1020"/>
		</g>
		<g>
			<rect x="280" fill="#FF0000" width="60" height="1020"/>
		</g>
		<g>
			<rect x="200" fill="#FF0000" width="60" height="1020"/>
		</g>
		<g>
			<rect x="120" fill="#FF0000" width="60" height="1020"/>
		</g>
		<g>
			<rect x="40" fill="#FF0000" width="60" height="1020"/>
		</g>
	</g>
</g>
<g id="Layer_3">
	<g>
		<g>
			<defs>
				<rect id="SVGID_1_" x="20.445" y="0.219" width="8.081" height="16.16"/>
			</defs>
			<defs>
				<rect id="SVGID_2_" x="12.365" y="0.219" width="16.161" height="8.08"/>
			</defs>
			<clipPath id="SVGID_3_">
				<use xlink:href="#SVGID_1_"  overflow="visible"/>
			</clipPath>
			<clipPath id="SVGID_4_" clip-path="url(#SVGID_3_)">
				<use xlink:href="#SVGID_2_"  overflow="visible"/>
			</clipPath>
			<circle clip-path="url(#SVGID_4_)" fill="#672CDF" cx="20.445" cy="8.299" r="8.081"/>
		</g>
		<g>
			<path fill="#672CDF" d="M19.617,6.508c0,0.313-0.362,0.568-0.811,0.568H1.817c-0.449,0-0.813-0.255-0.813-0.568V4.291
				c0-0.313,0.364-0.567,0.813-0.567h16.988c0.449,0,0.811,0.255,0.811,0.567V6.508z"/>
			<polygon fill="#672CDF" points="7.595,6.086 4.878,3.725 7.595,1.363 13.028,1.363 15.744,3.725 13.028,6.086 			"/>
			<polygon fill="#FFFFFF" points="6.416,3.724 8.364,2.031 12.259,2.031 14.208,3.724 			"/>
			<path fill="#672CDF" stroke="#FFFFFF" stroke-miterlimit="10" d="M6.814,7.076c0,1.066-0.867,1.933-1.936,1.933
				c-1.068,0-1.934-0.866-1.934-1.933c0-1.07,0.866-1.935,1.934-1.935C5.947,5.142,6.814,6.006,6.814,7.076z"/>
			<path fill="#672CDF" stroke="#FFFFFF" stroke-miterlimit="10" d="M17.679,7.076c0,1.066-0.867,1.933-1.935,1.933
				c-1.067,0-1.935-0.866-1.935-1.933c0-1.07,0.868-1.935,1.935-1.935C16.812,5.142,17.679,6.006,17.679,7.076z"/>
			<rect x="9.96" y="1.775" fill="#672CDF" width="0.623" height="2.156"/>
		</g>
		<rect x="0.183" y="9.327" fill="#672CDF" width="28.343" height="1.758"/>
		<circle fill="#672CDF" cx="2.119" cy="12.623" r="1.114"/>
		<circle fill="#672CDF" cx="4.697" cy="12.623" r="1.113"/>
		<circle fill="#672CDF" cx="18.964" cy="12.623" r="1.115"/>
		<circle fill="#672CDF" cx="21.542" cy="12.623" r="1.113"/>
		<circle fill="#672CDF" cx="26.76" cy="12.623" r="1.113"/>
		<rect x="24.623" y="3.491" fill="#FFFFFF" width="3.417" height="1.642"/>
		<rect x="21.716" y="3.491" fill="#FFFFFF" width="1.642" height="1.642"/>
	</g>
</g>
</svg>
