<svg version="1.1" id="Layer_1" xmlns="http://www.w3.org/2000/svg" xmlns:xlink="http://www.w3.org/1999/xlink" x="0px" y="0px"
	 width="27px" height="27px" viewBox="0 0 27 27" enable-background="new 0 0 27 27" xml:space="preserve">
<g>
	<path fill="#672CDF" d="M9.921,21.798c0,0.557-0.432,1.008-0.966,1.008H3.508c-0.534,0-0.967-0.451-0.967-1.008v-9.053
		c0-0.557,0.433-1.008,0.967-1.008h5.446c0.534,0,0.966,0.451,0.966,1.008V21.798z"/>
	<path fill="#672CDF" d="M9.963,13.243c1.771-1.071,2.661-2.273,3.416-3.329c0.53-0.743,1.213-2.873,1.165-4.273
		c-0.051-1.569,1.209-1.909,2.312-0.784c1.133,1.153,1.241,2.842,0.947,4.384c-0.235,1.236-0.497,2.288-0.497,2.288
		c1.48-0.041,5.204-0.029,5.361-0.013c1.188,0.116,2.523,1.719,1.314,3.19c0,0,0.871,1.474-0.424,2.407c0,0,0.403,2.09-0.891,2.641
		c0,0,0.377,2.251-1.782,2.269c-3.424,0.033-8.682,0.033-8.682,0.033c-1.793,0.094-2.144-0.986-2.239-1.337
		C9.868,20.368,9.963,13.243,9.963,13.243z"/>
</g>
</svg>
