<svg width="512" height="512" xmlns="http://www.w3.org/2000/svg">
  <g>
    <path id="svg_10" d="m492.837006,109.949112c-17.434814,7.74987 -36.198151,12.977417 -55.885712,15.316826c20.101532,-12.033951 35.514587,-31.095749 42.783112,-53.835098c-18.801849,11.157867 -39.615753,19.254326 -61.78714,23.625053c-17.742859,-18.907745 -43.033417,-30.729889 -71.019562,-30.729889c-53.729218,0 -97.292099,43.562904 -97.292099,97.301743c0,7.615097 0.856796,15.037643 2.522308,22.171341c-80.868195,-4.062683 -152.571304,-42.79274 -200.562729,-101.662849c-8.375633,14.363739 -13.16996,31.076508 -13.16996,48.92524c0,33.752853 17.174858,63.539291 43.283722,80.983688c-15.942581,-0.510208 -30.951324,-4.890579 -44.073154,-12.178345c-0.009624,0.404343 -0.009624,0.818329 -0.009624,1.232285c0,47.134613 33.541031,86.45195 78.057053,95.405197c-8.163857,2.214233 -16.760902,3.40799 -25.637154,3.40799c-6.276917,0 -12.370903,-0.606506 -18.310875,-1.752136c12.390182,38.653046 48.318748,66.793243 90.890053,67.573059c-33.300339,26.099243 -75.245903,41.656738 -120.840157,41.656738c-7.846138,0 -15.596003,-0.462097 -23.21109,-1.367065c43.071934,27.620361 94.211426,43.71698 149.153664,43.71698c178.978577,0 276.838715,-148.258331 276.838715,-276.838745c0,-4.216705 -0.086609,-8.423767 -0.269562,-12.601959c19.004028,-13.689819 35.504974,-30.8358 48.540192,-50.350052z"/>
  </g>
</svg>